<svg xmlns="http://www.w3.org/2000/svg" viewBox="0 0 64 64" width="64" height="64">
	<style>
		tspan { white-space:pre }
		.shp0 { fill: #0000ff } 
		.shp1 { fill: #eaaf2f } 
	</style>
	<path id="Layer" fill-rule="evenodd" class="shp0" d="M44 17L43.3 19.3C43.79 19.74 44.26 20.21 44.69 20.7L47.12 19.96C47.53 19.84 47.97 19.99 48.22 20.33C48.61 20.87 48.97 21.43 49.3 22L53.18 22C53.6 20.84 54.7 20 56 20C57.65 20 59 21.35 59 23C59 24.65 57.65 26 56 26C54.7 26 53.6 25.16 53.18 24L50.28 24C50.34 24.33 50.24 24.68 49.99 24.92L48.12 26.66C48.33 27.28 48.5 27.91 48.63 28.55L51.13 29.14C51.55 29.23 51.86 29.59 51.9 30.01C51.93 30.35 51.93 30.67 51.95 31L56.18 31C56.6 29.84 57.7 29 59 29C60.66 29 62 30.35 62 32C62 33.65 60.66 35 59 35C57.7 35 56.6 34.16 56.18 33L51.95 33C51.93 33.33 51.93 33.65 51.9 33.99C51.86 34.41 51.55 34.77 51.13 34.86L48.63 35.45C48.5 36.09 48.33 36.72 48.12 37.34L49.99 39.09C50.24 39.32 50.34 39.67 50.28 40L53.18 40C53.6 38.84 54.7 38 56 38C57.65 38 59 39.35 59 41C59 42.65 57.65 44 56 44C54.7 44 53.6 43.16 53.18 42L49.3 42C48.97 42.57 48.61 43.13 48.22 43.67C47.97 44.02 47.53 44.16 47.12 44.04L44.7 43.3C44.26 43.79 43.79 44.26 43.3 44.7L44 47L55 47C55.26 47 55.52 47.1 55.71 47.29L59.71 51.29C59.89 51.48 60 51.73 60 52L60 56.18C61.16 56.6 62 57.7 62 59C62 60.65 60.65 62 59 62C57.35 62 56 60.65 56 59C56 57.7 56.84 56.6 58 56.18L58 52.41L54.59 49L42.47 49C41.74 49.45 41 49.87 40.23 50.22C40.15 50.25 40.08 50.26 40 50.28L40 54.59L43.41 58L45.18 58C45.6 56.84 46.7 56 48 56C49.65 56 51 57.35 51 59C51 60.65 49.65 62 48 62C46.7 62 45.6 61.16 45.18 60L43 60C42.73 60 42.48 59.9 42.29 59.71L38.29 55.71C38.1 55.52 38 55.27 38 55L38 48.83L37.34 48.12C36.72 48.33 36.09 48.5 35.45 48.63L34.86 51.13C34.77 51.55 34.41 51.86 33.99 51.9C33.65 51.93 33.33 51.93 33 51.95L33 56.19C34.16 56.6 35 57.7 35 59C35 60.66 33.65 62 32 62C30.35 62 29 60.66 29 59C29 57.7 29.84 56.6 31 56.19L31 51.95C30.67 51.93 30.35 51.93 30.01 51.9C29.59 51.86 29.23 51.55 29.14 51.13L28.55 48.63C27.91 48.5 27.28 48.33 26.66 48.12L26 48.83L26 55C26 55.27 25.9 55.52 25.71 55.71L21.71 59.71C21.52 59.9 21.27 60 21 60L18.82 60C18.4 61.16 17.3 62 16 62C14.35 62 13 60.65 13 59C13 57.35 14.35 56 16 56C17.3 56 18.4 56.84 18.82 58L20.59 58L24 54.59L24 50.28C23.92 50.26 23.85 50.25 23.77 50.22C23 49.87 22.26 49.45 21.53 49L9.41 49L6 52.41L6 56.18C7.16 56.6 8 57.7 8 59C8 60.65 6.65 62 5 62C3.35 62 2 60.65 2 59C2 57.7 2.84 56.6 4 56.18L4 52C4 51.74 4.11 51.48 4.29 51.29L8.29 47.29C8.48 47.11 8.74 47 9 47L20 47L20.7 44.7C20.21 44.26 19.74 43.79 19.31 43.3L16.88 44.04C16.47 44.16 16.03 44.01 15.78 43.67C15.39 43.13 15.03 42.57 14.7 42L10.82 42C10.4 43.16 9.3 44 8 44C6.35 44 5 42.65 5 41C5 39.35 6.35 38 8 38C9.3 38 10.4 38.84 10.82 40L13.72 40C13.66 39.67 13.76 39.32 14.01 39.08L15.88 37.34C15.67 36.72 15.5 36.09 15.37 35.45L12.87 34.86C12.45 34.77 12.14 34.41 12.1 33.99C12.07 33.65 12.07 33.33 12.05 33L7.82 33C7.4 34.16 6.3 35 5 35C3.35 35 2 33.65 2 32C2 30.35 3.35 29 5 29C6.3 29 7.4 29.84 7.82 31L12.05 31C12.07 30.67 12.07 30.35 12.1 30.01C12.14 29.59 12.45 29.23 12.87 29.14L15.37 28.55C15.5 27.91 15.67 27.28 15.88 26.66L14.01 24.91C13.76 24.68 13.66 24.33 13.72 24L10.82 24C10.4 25.16 9.3 26 8 26C6.35 26 5 24.65 5 23C5 21.35 6.35 20 8 20C9.3 20 10.4 20.84 10.82 22L14.7 22C15.03 21.43 15.39 20.87 15.78 20.33C16.03 19.98 16.47 19.84 16.88 19.96L19.3 20.7C19.74 20.21 20.21 19.74 20.7 19.3L20 17L9 17C8.74 17 8.48 16.89 8.29 16.71L4.29 12.71C4.11 12.52 4 12.27 4 12L4 7.82C2.84 7.4 2 6.3 2 5C2 3.35 3.35 2 5 2C6.65 2 8 3.35 8 5C8 6.3 7.16 7.4 6 7.82L6 11.59L9.41 15L21.53 15C22.26 14.55 23 14.13 23.77 13.78C23.85 13.75 23.92 13.74 24 13.72L24 9.41L20.59 6L18.82 6C18.4 7.16 17.3 8 16 8C14.35 8 13 6.65 13 5C13 3.35 14.35 2 16 2C17.3 2 18.4 2.84 18.82 4L21 4C21.27 4 21.52 4.1 21.71 4.29L25.71 8.29C25.89 8.48 26 8.73 26 9L26 15.17L26.66 15.88C27.28 15.67 27.91 15.5 28.55 15.37L29.14 12.87C29.23 12.45 29.59 12.14 30.01 12.1C30.35 12.07 30.67 12.07 31 12.05L31 7.82C29.84 7.4 29 6.3 29 5C29 3.35 30.35 2 32 2C33.65 2 35 3.35 35 5C35 6.3 34.16 7.4 33 7.82L33 12.05C33.33 12.07 33.65 12.07 33.99 12.1C34.41 12.14 34.77 12.45 34.86 12.87L35.45 15.37C36.09 15.5 36.72 15.67 37.34 15.88L38 15.17L38 9C38 8.74 38.11 8.48 38.29 8.29L42.29 4.29C42.48 4.11 42.74 4 43 4L45.18 4C45.6 2.84 46.7 2 48 2C49.65 2 51 3.35 51 5C51 6.65 49.65 8 48 8C46.7 8 45.6 7.16 45.18 6L43.41 6L40 9.41L40 13.72C40.08 13.74 40.15 13.75 40.23 13.78C41 14.13 41.74 14.55 42.47 15L54.59 15L58 11.59L58 7.82C56.84 7.4 56 6.3 56 5C56 3.35 57.35 2 59 2C60.65 2 62 3.35 62 5C62 6.3 61.16 7.4 60 7.82L60 12C60 12.27 59.9 12.52 59.71 12.71L55.71 16.71C55.52 16.89 55.27 17 55 17L44 17ZM58 5C58 5.55 58.45 6 59 6C59.55 6 60 5.55 60 5C60 4.45 59.55 4 59 4C58.45 4 58 4.45 58 5ZM47 5C47 5.55 47.45 6 48 6C48.55 6 49 5.55 49 5C49 4.45 48.55 4 48 4C47.45 4 47 4.45 47 5ZM17 5C17 4.45 16.55 4 16 4C15.45 4 15 4.45 15 5C15 5.55 15.45 6 16 6C16.55 6 17 5.55 17 5ZM4 5C4 5.55 4.45 6 5 6C5.55 6 6 5.55 6 5C6 4.45 5.55 4 5 4C4.45 4 4 4.45 4 5ZM9 23C9 22.45 8.55 22 8 22C7.45 22 7 22.45 7 23C7 23.55 7.45 24 8 24C8.55 24 9 23.55 9 23ZM9 41C9 40.45 8.55 40 8 40C7.45 40 7 40.45 7 41C7 41.55 7.45 42 8 42C8.55 42 9 41.55 9 41ZM6 59C6 58.45 5.55 58 5 58C4.45 58 4 58.45 4 59C4 59.55 4.45 60 5 60C5.55 60 6 59.55 6 59ZM17 59C17 58.45 16.55 58 16 58C15.45 58 15 58.45 15 59C15 59.55 15.45 60 16 60C16.55 60 17 59.55 17 59ZM47 59C47 59.55 47.45 60 48 60C48.55 60 49 59.55 49 59C49 58.45 48.55 58 48 58C47.45 58 47 58.45 47 59ZM60 59C60 58.45 59.55 58 59 58C58.45 58 58 58.45 58 59C58 59.55 58.45 60 59 60C59.55 60 60 59.55 60 59ZM55 41C55 41.55 55.45 42 56 42C56.55 42 57 41.55 57 41C57 40.45 56.55 40 56 40C55.45 40 55 40.45 55 41ZM55 23C55 23.55 55.45 24 56 24C56.55 24 57 23.55 57 23C57 22.45 56.55 22 56 22C55.45 22 55 22.45 55 23ZM31 5C31 5.55 31.45 6 32 6C32.55 6 33 5.55 33 5C33 4.45 32.55 4 32 4C31.45 4 31 4.45 31 5ZM6 32C6 31.45 5.55 31 5 31C4.45 31 4 31.45 4 32C4 32.55 4.45 33 5 33C5.55 33 6 32.55 6 32ZM33 59C33 58.45 32.55 58 32 58C31.45 58 31 58.45 31 59C31 59.55 31.45 60 32 60C32.55 60 33 59.55 33 59ZM58 32C58 32.55 58.45 33 59 33C59.55 33 60 32.55 60 32C60 31.45 59.55 31 59 31C58.45 31 58 31.45 58 32ZM43.59 22.48C42.97 21.72 42.27 21.03 41.52 20.41C41.21 20.15 41.08 19.73 41.2 19.35L41.91 17C41.31 16.6 40.69 16.23 40.05 15.91L38.35 17.72C38.08 18.01 37.65 18.11 37.27 17.97C36.37 17.63 35.42 17.38 34.46 17.22C34.06 17.15 33.74 16.85 33.65 16.46L33.08 14.03C32.35 13.99 31.65 13.99 30.92 14.03L30.35 16.46C30.26 16.85 29.94 17.15 29.54 17.22C28.58 17.38 27.64 17.63 26.73 17.97C26.35 18.11 25.92 18.01 25.65 17.72L23.96 15.91C23.32 16.23 22.69 16.6 22.09 17L22.8 19.35C22.92 19.73 22.79 20.15 22.48 20.41C21.73 21.03 21.03 21.73 20.41 22.48C20.15 22.79 19.74 22.92 19.35 22.8L17 22.09C16.6 22.69 16.24 23.31 15.91 23.96L17.72 25.65C18.01 25.92 18.11 26.35 17.97 26.73C17.63 27.63 17.38 28.58 17.22 29.54C17.15 29.94 16.85 30.26 16.46 30.35L14.03 30.92C14.01 31.29 14 31.65 14 32C14 32.35 14.01 32.71 14.03 33.08L16.46 33.65C16.85 33.74 17.15 34.06 17.22 34.46C17.38 35.42 17.63 36.36 17.97 37.27C18.11 37.65 18.01 38.08 17.72 38.35L15.91 40.04C16.23 40.68 16.6 41.31 17 41.91L19.35 41.2C19.73 41.08 20.15 41.21 20.41 41.52C21.03 42.28 21.73 42.97 22.48 43.59C22.79 43.85 22.92 44.27 22.8 44.65L22.08 47C22.69 47.4 23.31 47.77 23.95 48.09L25.65 46.28C25.92 45.99 26.35 45.88 26.73 46.03C27.64 46.37 28.58 46.62 29.54 46.78C29.94 46.85 30.26 47.15 30.35 47.54L30.92 49.97C31.65 50.01 32.35 50.01 33.08 49.97L33.65 47.54C33.74 47.15 34.06 46.85 34.46 46.78C35.42 46.62 36.37 46.37 37.27 46.03C37.65 45.88 38.08 45.98 38.35 46.28L40.04 48.09C40.69 47.77 41.31 47.4 41.91 47L41.2 44.65C41.08 44.27 41.21 43.85 41.52 43.59C42.28 42.97 42.97 42.27 43.59 41.52C43.85 41.21 44.27 41.08 44.65 41.2L47 41.91C47.4 41.31 47.76 40.69 48.09 40.04L46.28 38.35C45.99 38.08 45.89 37.65 46.03 37.27C46.37 36.37 46.62 35.42 46.78 34.46C46.85 34.06 47.15 33.74 47.54 33.65L49.97 33.08C49.99 32.71 50 32.35 50 32C50 31.65 49.99 31.29 49.97 30.92L47.54 30.35C47.15 30.26 46.85 29.94 46.78 29.54C46.62 28.58 46.37 27.64 46.03 26.73C45.89 26.35 45.99 25.92 46.28 25.65L48.09 23.96C47.77 23.32 47.4 22.69 47 22.09L44.65 22.8C44.27 22.92 43.85 22.79 43.59 22.48Z" />
	<path id="Layer" fill-rule="evenodd" class="shp1" d="M41 25L41 40C41 42.63 36.47 44 32 44C27.53 44 23 42.63 23 40L23 25C23 22.37 27.53 21 32 21C36.47 21 41 22.37 41 25ZM39 40L39 37.6C37.26 38.52 34.63 39 32 39C29.37 39 26.74 38.52 25 37.6L25 40C25 40.58 27.45 42 32 42C36.55 42 39 40.58 39 40ZM39 35L39 32.6C37.26 33.52 34.63 34 32 34C29.37 34 26.74 33.52 25 32.6L25 35C25 35.58 27.45 37 32 37C36.55 37 39 35.58 39 35ZM39 30L39 27.6C37.26 28.52 34.63 29 32 29C29.37 29 26.74 28.52 25 27.6L25 30C25 30.58 27.45 32 32 32C36.55 32 39 30.58 39 30ZM39 25C39 24.42 36.55 23 32 23C27.45 23 25 24.42 25 25C25 25.58 27.45 27 32 27C36.55 27 39 25.58 39 25Z" />
</svg>