<svg xmlns="http://www.w3.org/2000/svg" viewBox="0 0 512 512" width="512" height="512">
	<style>
		tspan { white-space:pre }
		.shp0 { fill: #eaaf2f } 
		.shp1 { fill: #0000ff } 
	</style>
	<g id="Layer">
		<path id="Layer" class="shp0" d="M253.46 94.87C229.81 111.51 202.99 130.37 188.63 161.57C163.67 216 239.69 275.38 242.94 277.88C243.69 278.46 244.6 278.75 245.5 278.75C246.45 278.75 247.41 278.42 248.19 277.77C249.7 276.51 250.13 274.37 249.22 272.62C248.95 272.09 221.66 219.09 222.67 181.07C223.03 167.83 241.57 152.8 261.19 136.9C279.16 122.33 299.53 105.82 311.44 86.5C337.61 43.99 308.53 2.18 308.23 1.76C307.08 0.14 304.94 -0.45 303.12 0.35C301.3 1.16 300.29 3.13 300.71 5.07C300.77 5.35 306.42 33 290.69 61.48C284.2 73.25 269.96 83.27 253.46 94.87Z" />
		<path id="Layer" class="shp0" d="M353.14 113.62C354.81 112.36 355.3 110.07 354.29 108.24C353.28 106.41 351.08 105.6 349.12 106.34C345.1 107.87 250.71 144.26 250.71 188.22C250.71 218.53 263.65 234.54 273.1 246.23C276.81 250.82 280.01 254.78 281.07 258.16C284.04 267.9 277 285.51 274.04 291.48C273.19 293.19 273.61 295.27 275.06 296.52C275.84 297.2 276.82 297.54 277.8 297.54C278.64 297.54 279.48 297.29 280.2 296.79C281.82 295.66 319.87 268.76 313.04 236.36C310.5 224.04 304.45 215.04 299.11 207.1C290.83 194.79 284.86 185.9 293.92 169.49C304.55 150.34 352.65 113.98 353.14 113.62Z" />
	</g>
	<g id="Layer">
		<path id="Layer" class="shp1" d="M107.42 298.24C105.8 303.08 106.56 307.89 109.63 312.14C119.86 326.35 156.1 334.17 211.69 334.17C211.7 334.17 211.7 334.17 211.7 334.17C219.23 334.17 227.18 334.02 235.33 333.73C324.2 330.55 357.17 302.86 358.53 301.68C360.01 300.4 360.41 298.26 359.48 296.54C358.56 294.81 356.58 293.94 354.68 294.46C323.38 303.01 264.93 306.04 224.39 306.04C179.03 306.04 155.92 302.78 150.27 300.36C153.17 296.38 171.07 289.26 193.25 284.9C195.37 284.48 196.83 282.52 196.62 280.37C196.41 278.22 194.6 276.58 192.44 276.58C179.44 276.58 114.23 277.63 107.42 298.24Z" />
		<path id="Layer" class="shp1" d="M404.81 269.72C386.48 269.72 369.1 278.91 368.37 279.3C366.67 280.2 365.81 282.15 366.28 284.02C366.74 285.88 368.42 287.19 370.34 287.19C370.73 287.19 409.44 287.51 412.95 309.63C416.06 328.71 376.32 359.63 360.75 369.93C359.07 371.05 358.41 373.2 359.2 375.06C359.86 376.64 361.4 377.63 363.06 377.63C363.35 377.63 363.65 377.6 363.94 377.54C367.64 376.75 454.35 357.64 445.18 307.15C439.58 276.21 420.14 269.72 404.81 269.72Z" />
		<path id="Layer" class="shp1" d="M345.35 363.75C345.65 362.14 344.98 360.49 343.63 359.55L322.84 344.99C321.82 344.28 320.54 344.05 319.35 344.37C319.14 344.42 297.39 350.14 265.83 353.64C253.3 355.05 239.27 355.79 225.25 355.79C193.69 355.79 173.06 352.08 170.05 349.36C169.65 348.6 169.78 348.25 169.85 348.06C170.4 346.54 173.32 344.74 175.21 344.02C177.29 343.25 178.41 340.99 177.77 338.87C177.12 336.74 174.93 335.49 172.77 336.01C151.91 341.04 141.71 348.08 142.45 356.92C143.77 372.61 180.1 380.66 210.82 382.79C215.24 383.09 220.01 383.24 225.01 383.24C225.02 383.24 225.02 383.24 225.02 383.24C276.1 383.24 341.57 367.22 342.23 367.06C343.82 366.67 345.04 365.38 345.35 363.75Z" />
		<path id="Layer" class="shp1" d="M188.6 397.42C190.18 396.39 190.88 394.45 190.32 392.65C189.76 390.86 188.08 389.68 186.2 389.71C183.4 389.78 158.85 390.89 157.13 406.52C156.61 411.2 157.95 415.46 161.11 419.21C169.93 429.66 193.72 435.87 233.85 438.19C238.6 438.48 243.42 438.62 248.18 438.62C299.2 438.62 333.56 422.65 335 421.97C336.39 421.31 337.31 419.94 337.39 418.4C337.48 416.86 336.71 415.4 335.39 414.59L309.12 398.55C308.2 398 307.11 397.81 306.07 398.02C305.91 398.06 289.22 401.52 264.05 404.94C259.28 405.59 253.32 405.91 246.32 405.91C221.17 405.91 193.19 401.81 187.83 399.11C187.75 398.61 187.85 397.98 188.6 397.42Z" />
		<path id="Layer" class="shp1" d="M224.41 486.85C341.26 486.75 403.98 465.97 416.06 452.89C420.34 448.27 420.8 443.89 420.44 441.03C419.54 433.99 413.13 429.68 412.4 429.21C410.64 428.08 408.29 428.38 406.92 429.95C405.56 431.53 405.53 433.84 406.9 435.41C407.63 436.36 408.06 437.95 405.9 440.11C401.07 444.62 352.36 458.31 271.25 462.42C260.14 463 248.48 463.3 236.61 463.3C163.99 463.3 110.84 453.35 103.86 447.55C106.55 443.69 125.35 437.52 145.34 434.02C147.6 433.63 149.12 431.51 148.77 429.25C148.42 426.99 146.34 425.43 144.06 425.73C143.5 425.81 141.58 425.92 139.37 426.06C106.38 428.07 68.26 432.56 66.27 449.56C65.67 454.73 67.2 459.44 70.85 463.53C79.75 473.54 105.36 486.85 224.4 486.85C224.41 486.85 224.41 486.85 224.41 486.85Z" />
		<path id="Layer" class="shp1" d="M439.01 456.58C437.36 455.81 435.41 456.2 434.18 457.53C434.01 457.71 416.44 476.09 363.61 486.87C343.39 490.93 305.43 492.98 250.79 492.98C196.04 492.98 143.95 490.83 143.43 490.81C141.25 490.7 139.39 492.28 139.1 494.42C138.8 496.56 140.18 498.58 142.28 499.08C142.82 499.21 197.42 512 272.06 512C307.86 512 342.7 509.09 375.61 503.35C436.97 492.6 441.26 462.17 441.42 460.88C441.63 459.08 440.66 457.34 439.01 456.58Z" />
	</g>
	<g id="Layer">
	</g>
	<g id="Layer">
	</g>
	<g id="Layer">
	</g>
	<g id="Layer">
	</g>
	<g id="Layer">
	</g>
	<g id="Layer">
	</g>
	<g id="Layer">
	</g>
	<g id="Layer">
	</g>
	<g id="Layer">
	</g>
	<g id="Layer">
	</g>
	<g id="Layer">
	</g>
	<g id="Layer">
	</g>
	<g id="Layer">
	</g>
	<g id="Layer">
	</g>
	<g id="Layer">
	</g>
</svg>