<svg xmlns="http://www.w3.org/2000/svg" viewBox="0 0 24 24" width="24" height="24">
	<style>
		tspan { white-space:pre }
		.shp0 { fill: #eaaf2f } 
		.shp1 { fill: #0000ff } 
	</style>
	<path id="Layer" fill-rule="evenodd" class="shp0" d="M18 20C16.62 20 15.5 18.88 15.5 17.5C15.5 16.12 16.62 15 18 15C19.38 15 20.5 16.12 20.5 17.5C20.5 18.88 19.38 20 18 20ZM18 16C17.17 16 16.5 16.67 16.5 17.5C16.5 18.33 17.17 19 18 19C18.83 19 19.5 18.33 19.5 17.5C19.5 16.67 18.83 16 18 16Z" />
	<path id="Layer" fill-rule="evenodd" class="shp1" d="M17.22 24C16.71 24 16.29 23.61 16.24 23.1L16.12 21.82C15.83 21.69 15.55 21.53 15.29 21.33L14.17 21.85C13.7 22.07 13.16 21.89 12.9 21.44L12.13 20.06C11.88 19.61 12 19.05 12.4 18.75L13.4 18.01C13.38 17.86 13.37 17.68 13.37 17.5C13.37 17.32 13.38 17.15 13.4 16.99L12.4 16.25C12 15.95 11.88 15.39 12.13 14.95L12.9 13.57C13.16 13.11 13.7 12.94 14.17 13.15L15.29 13.67C15.55 13.48 15.83 13.31 16.12 13.18L16.24 11.9C16.29 11.39 16.71 11 17.22 11L18.77 11C19.29 11 19.71 11.39 19.75 11.9L19.88 13.18C20.17 13.31 20.45 13.47 20.71 13.67L21.83 13.15C22.3 12.93 22.84 13.11 23.1 13.56L23.87 14.94C24.12 15.39 24 15.95 23.6 16.25L22.6 16.99C22.61 17.14 22.63 17.32 22.63 17.5C22.63 17.68 22.62 17.85 22.6 18.01L23.6 18.75C24 19.05 24.12 19.61 23.87 20.05L23.1 21.44C22.84 21.89 22.3 22.07 21.83 21.85L20.71 21.33C20.45 21.53 20.17 21.69 19.88 21.82L19.76 23.1C19.71 23.61 19.29 24 18.78 24L17.22 24ZM15.36 20.25C15.48 20.25 15.6 20.29 15.69 20.37C16.02 20.65 16.38 20.87 16.77 21.01C16.94 21.08 17.07 21.24 17.09 21.43L17.24 23L18.77 23L18.91 21.43C18.93 21.24 19.06 21.08 19.23 21.01C19.62 20.87 19.98 20.65 20.31 20.37C20.46 20.24 20.67 20.21 20.85 20.29L22.25 20.94L23 19.56L21.76 18.63C21.61 18.52 21.53 18.34 21.56 18.15C21.6 17.94 21.63 17.72 21.63 17.5C21.63 17.28 21.6 17.06 21.56 16.85C21.53 16.66 21.61 16.48 21.76 16.37L23 15.45L22.22 14.05L20.85 14.71C20.67 14.79 20.46 14.76 20.31 14.63C19.98 14.35 19.62 14.13 19.23 13.99C19.06 13.92 18.93 13.76 18.91 13.57L18.76 12L17.23 12L17.09 13.57C17.07 13.76 16.94 13.92 16.77 13.99C16.38 14.13 16.02 14.35 15.69 14.63C15.54 14.76 15.33 14.79 15.15 14.71L13.75 14.06L13 15.44L14.24 16.37C14.39 16.48 14.47 16.66 14.44 16.85C14.4 17.06 14.37 17.28 14.37 17.5C14.37 17.72 14.4 17.94 14.44 18.15C14.47 18.34 14.39 18.52 14.24 18.63L13 19.55L13.78 20.95L15.15 20.29C15.22 20.26 15.29 20.25 15.36 20.25Z" />
	<path id="Layer" class="shp1" d="M11.39 24L4.5 24C3.12 24 2 22.88 2 21.5L2 2.5C2 1.12 3.12 0 4.5 0L19.5 0C20.88 0 22 1.12 22 2.5L22 9.82C22 10.1 21.78 10.32 21.5 10.32C21.22 10.32 21 10.1 21 9.82L21 2.5C21 1.67 20.33 1 19.5 1L4.5 1C3.67 1 3 1.67 3 2.5L3 21.5C3 22.33 3.67 23 4.5 23L11.39 23C11.67 23 11.89 23.22 11.89 23.5C11.89 23.78 11.67 24 11.39 24Z" />
	<path id="Layer" fill-rule="evenodd" class="shp0" d="M5.5 9C5.22 9 5 8.78 5 8.5L5 3.5C5 3.22 5.22 3 5.5 3L7 3C8.1 3 9 3.9 9 5C9 6.1 8.1 7 7 7L6 7L6 8.5C6 8.78 5.78 9 5.5 9ZM6 6L7 6C7.55 6 8 5.55 8 5C8 4.45 7.55 4 7 4L6 4L6 6Z" />
	<path id="Layer" fill-rule="evenodd" class="shp0" d="M15.5 9C15.22 9 15 8.78 15 8.5L15 3.5C15 3.22 15.22 3 15.5 3L17 3C18.1 3 19 3.9 19 5C19 6.1 18.1 7 17 7L16 7L16 8.5C16 8.78 15.78 9 15.5 9ZM16 6L17 6C17.55 6 18 5.55 18 5C18 4.45 17.55 4 17 4L16 4L16 6Z" />
	<path id="Layer" class="shp0" d="M13.5 9C13.22 9 13 8.78 13 8.5L13 3.5C13 3.22 13.22 3 13.5 3C13.78 3 14 3.22 14 3.5L14 8.5C14 8.78 13.78 9 13.5 9Z" />
	<path id="Layer" class="shp0" d="M13.25 7L10.75 7C10.47 7 10.25 6.78 10.25 6.5C10.25 6.22 10.47 6 10.75 6L13.25 6C13.53 6 13.75 6.22 13.75 6.5C13.75 6.78 13.53 7 13.25 7Z" />
	<path id="Layer" class="shp0" d="M10.5 9C10.22 9 10 8.78 10 8.5L10 3.5C10 3.22 10.22 3 10.5 3C10.78 3 11 3.22 11 3.5L11 8.5C11 8.78 10.78 9 10.5 9Z" />
</svg>