<svg xmlns="http://www.w3.org/2000/svg" viewBox="0 0 512 512" width="512" height="512">
	<style>
		tspan { white-space:pre }
		.shp0 { fill: #0000ff } 
		.shp1 { fill: #eaaf2f } 
	</style>
	<path id="Layer" fill-rule="evenodd" class="shp0" d="M512 221L512 291C512 332.36 478.36 366 437 366L366 366L366 437C366 478.36 332.36 512 291 512L221 512C179.64 512 146 478.36 146 437L146 366L75 366C33.64 366 0 332.36 0 291L0 221C0 179.64 33.64 146 75 146L146 146L146 75C146 33.64 179.64 0 221 0L291 0C332.36 0 366 33.64 366 75L366 146L437 146C478.36 146 512 179.64 512 221ZM146 336L146 256C146 247.71 152.71 241 161 241L336 241L336 75C336 50.19 315.81 30 291 30L221 30C196.19 30 176 50.19 176 75L176 146L256 146C264.29 146 271 152.71 271 161C271 169.29 264.29 176 256 176L75 176C50.19 176 30 196.19 30 221L30 291C30 315.81 50.19 336 75 336L146 336ZM482 221C482 196.19 461.81 176 437 176L366 176L366 256C366 264.29 359.29 271 351 271L176 271L176 437C176 461.81 196.19 482 221 482L291 482C315.81 482 336 461.81 336 437L336 366L256 366C247.71 366 241 359.29 241 351C241 342.71 247.71 336 256 336L437 336C461.81 336 482 315.81 482 291L482 221Z" />
	<path id="Layer" class="shp1" d="M236 90C236 98.29 229.29 105 221 105C212.71 105 206 98.29 206 90C206 81.71 212.71 75 221 75C229.29 75 236 81.71 236 90Z" />
	<path id="Layer" class="shp1" d="M306 422C306 430.29 299.29 437 291 437C282.71 437 276 430.29 276 422C276 413.71 282.71 407 291 407C299.29 407 306 413.71 306 422Z" />
</svg>