<svg xmlns="http://www.w3.org/2000/svg" viewBox="0 0 512 512" width="512" height="512">
	<style>
		tspan { white-space:pre }
		.shp0 { fill: #ffffff } 
		.shp1 { fill: #0000ff } 
		.shp2 { fill: #eaaf2f } 
	</style>
	<path id="Layer" class="shp0" d="M512 256C512 340.34 471.21 415.16 408.28 461.8C381.94 481.32 351.72 495.91 319 504.18C298.84 509.29 277.74 512 256 512C234.26 512 213.15 509.29 192.99 504.18C160.27 495.91 130.05 481.32 103.71 461.79C40.78 415.15 0 340.33 0 256C0 114.61 114.61 0 256 0C397.38 0 512 114.61 512 256Z" />
	<g id="Layer">
		<path id="Layer" fill-rule="evenodd" class="shp1" d="M408.28 461.8C381.94 481.32 351.72 495.91 319 504.18C305.2 498.38 290.46 489.35 275.13 477.17C268.76 472.1 262.36 466.59 256 460.63C250.41 455.42 244.83 449.87 239.3 444.03C224.77 428.69 210.51 411.3 196.9 392.34C190.96 384.04 185.14 375.45 179.47 366.59C174.47 358.79 169.6 350.78 164.88 342.59C160.15 334.4 155.65 326.18 151.39 317.94C146.55 308.61 142.01 299.28 137.81 289.98C128.19 268.72 120.26 247.66 114.24 227.41C111.94 219.7 109.93 212.1 108.21 204.65C106.24 196.17 104.64 187.87 103.45 179.82C95.63 127.16 105.68 89.88 131.77 74.82C157.86 59.76 195.18 69.7 236.86 102.79C243.24 107.86 249.64 113.38 256 119.34C261.59 124.55 267.16 130.09 272.69 135.93C287.22 151.27 301.49 168.67 315.09 187.63C321.05 195.93 326.87 204.52 332.52 213.37C337.52 221.17 342.39 229.18 347.12 237.37C351.85 245.55 356.34 253.79 360.61 262.01C365.44 271.34 369.98 280.68 374.19 289.98C383.8 311.26 391.73 332.3 397.75 352.55C400.04 360.26 402.06 367.86 403.79 375.31C405.75 383.79 407.34 392.09 408.55 400.14C412.1 424.09 411.96 444.86 408.28 461.8ZM385.26 403.6C384.2 396.43 382.79 389.03 381.06 381.46C379.37 374.03 377.35 366.45 375.05 358.72C371.09 345.46 366.26 331.81 360.6 317.95C356.84 308.71 352.71 299.37 348.24 289.98C341.77 276.39 334.59 262.72 326.74 249.14C318.9 235.56 310.66 222.5 302.13 210.1C296.25 201.54 290.22 193.3 284.1 185.41C274.91 173.58 265.51 162.57 255.99 152.51C250.46 146.65 244.89 141.12 239.3 135.94C233.62 130.65 227.91 125.73 222.23 121.22C205.32 107.8 189 98.45 175.02 94.19C169.08 92.37 163.63 91.46 158.7 91.46C152.92 91.46 147.85 92.72 143.54 95.2C135.55 99.81 129.95 108.82 126.91 121.96C123.62 136.2 123.55 155.01 126.73 176.36C127.79 183.54 129.2 190.94 130.94 198.5C132.62 205.93 134.63 213.52 136.93 221.25C140.89 234.51 145.73 248.16 151.38 262.02C155.15 271.27 159.27 280.61 163.75 289.98C170.21 303.57 177.4 317.24 185.25 330.82C193.09 344.41 201.33 357.47 209.87 369.87C215.75 378.43 221.78 386.67 227.9 394.56C237.08 406.38 246.48 417.39 255.99 427.46C261.53 433.32 267.11 438.86 272.69 444.04C278.38 449.32 284.08 454.23 289.76 458.74C306.67 472.17 322.99 481.51 336.97 485.78C349.87 489.71 360.47 489.38 368.45 484.76C376.45 480.15 382.04 471.14 385.08 458C388.37 443.76 388.44 424.95 385.26 403.6Z" />
		<path id="Layer" fill-rule="evenodd" class="shp1" d="M504.45 289.98C504.45 320.11 477.18 347.46 427.68 367.01C420.1 370 412.12 372.77 403.79 375.31C396.48 377.54 388.89 379.59 381.06 381.46C360.52 386.38 338.32 390.04 315.09 392.34C304.93 393.34 294.59 394.08 284.09 394.56C274.83 394.99 265.46 395.2 256 395.2C246.54 395.2 237.16 394.99 227.9 394.56C217.4 394.08 207.05 393.34 196.9 392.34C173.66 390.03 151.47 386.38 130.93 381.46C123.1 379.6 115.51 377.54 108.2 375.32C99.86 372.77 91.89 370 84.31 367.01C34.82 347.46 7.54 320.1 7.54 289.98C7.54 259.86 34.82 232.5 84.31 212.96C91.89 209.97 99.87 207.19 108.21 204.65C115.52 202.43 123.11 200.37 130.94 198.5C151.48 193.59 173.66 189.93 196.89 187.63C207.04 186.63 217.39 185.88 227.89 185.41C237.16 184.98 246.54 184.76 256 184.76C265.46 184.76 274.84 184.98 284.1 185.41C294.59 185.88 304.94 186.62 315.09 187.63C338.32 189.93 360.51 193.59 381.05 198.5C388.88 200.37 396.47 202.43 403.78 204.65C412.12 207.2 420.1 209.97 427.68 212.96C477.18 232.5 504.44 259.86 504.45 289.98ZM480.91 289.98C480.91 280.76 475.91 271.41 466.05 262.21C455.37 252.23 439.11 242.77 419.04 234.84C412.27 232.18 405.17 229.69 397.75 227.41C390.47 225.17 382.89 223.11 375.06 221.25C361.59 218.04 347.34 215.41 332.52 213.37C322.63 212 312.49 210.9 302.13 210.1C287.12 208.9 271.68 208.29 256 208.29C240.31 208.29 224.88 208.9 209.87 210.09C199.51 210.9 189.36 212 179.47 213.37C164.64 215.41 150.4 218.04 136.93 221.25C129.1 223.11 121.52 225.17 114.24 227.41C106.82 229.69 99.71 232.18 92.95 234.84C72.88 242.77 56.62 252.23 45.94 262.21C36.08 271.41 31.07 280.75 31.07 289.98C31.07 299.21 36.08 308.55 45.94 317.75C56.62 327.73 72.88 337.19 92.95 345.12C99.71 347.78 106.82 350.27 114.24 352.55C121.52 354.8 129.1 356.85 136.93 358.71C150.4 361.92 164.64 364.55 179.47 366.59C189.36 367.96 199.51 369.06 209.87 369.87C224.88 371.06 240.31 371.67 256 371.67C271.68 371.67 287.12 371.06 302.13 369.86C312.49 369.06 322.63 367.96 332.52 366.59C347.34 364.55 361.59 361.92 375.06 358.71C382.89 356.85 390.47 354.79 397.75 352.55C405.17 350.27 412.28 347.78 419.04 345.12C439.11 337.19 455.37 327.73 466.05 317.75C475.91 308.55 480.91 299.21 480.91 289.98Z" />
		<path id="Layer" fill-rule="evenodd" class="shp1" d="M408.55 179.82C407.34 187.87 405.76 196.17 403.78 204.65C402.06 212.1 400.04 219.7 397.75 227.41C391.73 247.66 383.8 268.71 374.19 289.98C369.98 299.28 365.44 308.62 360.61 317.95C356.34 326.18 351.85 334.41 347.12 342.59C342.39 350.78 337.52 358.79 332.52 366.59C326.86 375.45 321.04 384.04 315.09 392.34C301.49 411.3 287.21 428.7 272.69 444.04C267.16 449.88 261.59 455.42 256 460.63C249.64 466.58 243.24 472.1 236.86 477.17C221.53 489.35 206.8 498.38 192.99 504.18C160.27 495.91 130.05 481.32 103.71 461.79C100.03 444.84 99.89 424.08 103.45 400.14C104.64 392.09 106.24 383.8 108.2 375.32C109.92 367.87 111.94 360.27 114.24 352.55C120.26 332.3 128.19 311.25 137.81 289.98C142.01 280.69 146.55 271.35 151.39 262.02C155.65 253.78 160.15 245.56 164.88 237.37C169.6 229.18 174.47 221.17 179.47 213.37C185.13 204.52 190.95 195.93 196.89 187.63C210.51 168.67 224.77 151.28 239.3 135.94C244.83 130.1 250.41 124.55 256 119.34C262.36 113.38 268.76 107.86 275.13 102.79C316.81 69.69 354.13 59.76 380.22 74.81C406.31 89.88 416.36 127.16 408.55 179.82ZM381.05 198.5C382.79 190.93 384.2 183.54 385.26 176.36C388.44 155.01 388.37 136.2 385.07 121.96C382.03 108.82 376.44 99.81 368.45 95.2C364.15 92.71 359.07 91.46 353.29 91.46C348.36 91.46 342.9 92.37 336.97 94.19C322.99 98.45 306.67 107.8 289.76 121.22C284.08 125.73 278.38 130.64 272.69 135.93C267.11 141.1 261.53 146.64 255.99 152.5C246.48 162.57 237.08 173.58 227.89 185.41C221.77 193.29 215.75 201.53 209.87 210.09C201.33 222.49 193.09 235.55 185.25 249.14C177.4 262.72 170.21 276.39 163.75 289.98C159.27 299.35 155.15 308.69 151.39 317.94C145.73 331.8 140.89 345.45 136.93 358.71C134.64 366.45 132.62 374.03 130.93 381.46C129.2 389.03 127.79 396.42 126.73 403.6C123.55 424.95 123.62 443.76 126.91 458C129.95 471.14 135.56 480.15 143.54 484.76C151.52 489.38 162.12 489.71 175.02 485.78C189 481.51 205.32 472.17 222.23 458.74C227.91 454.23 233.62 449.31 239.3 444.03C244.89 438.85 250.46 433.31 255.99 427.46C265.51 417.39 274.91 406.38 284.09 394.56C290.21 386.67 296.24 378.43 302.13 369.86C310.66 357.46 318.9 344.4 326.74 330.83C334.59 317.24 341.78 303.57 348.24 289.98C352.72 280.6 356.84 271.26 360.6 262.01C366.26 248.15 371.1 234.51 375.06 221.25C377.35 213.51 379.37 205.93 381.05 198.5Z" />
		<path id="Layer" class="shp2" d="M256 336.68C230.18 336.68 209.3 315.8 209.3 289.98C209.3 264.16 230.18 243.28 256 243.28C281.82 243.28 302.7 264.16 302.7 289.98C302.7 315.8 281.82 336.68 256 336.68Z" />
	</g>
	<g id="Layer">
	</g>
	<g id="Layer">
	</g>
	<g id="Layer">
	</g>
	<g id="Layer">
	</g>
	<g id="Layer">
	</g>
	<g id="Layer">
	</g>
	<g id="Layer">
	</g>
	<g id="Layer">
	</g>
	<g id="Layer">
	</g>
	<g id="Layer">
	</g>
	<g id="Layer">
	</g>
	<g id="Layer">
	</g>
	<g id="Layer">
	</g>
	<g id="Layer">
	</g>
	<g id="Layer">
	</g>
</svg>