<svg xmlns="http://www.w3.org/2000/svg" viewBox="0 0 513 513" width="513" height="513">
	<style>
		tspan { white-space:pre }
		.shp0 { fill: #eaaf2f } 
		.shp1 { fill: #0000ff } 
	</style>
	<g id="Layer">
		<g id="Layer">
			<g id="Layer">
				<path id="Layer" class="shp0" d="M158.4 339.51L155.8 341.31C140.4 352.41 135 350.91 133.1 349.11C130 346.01 131.4 335.71 140.7 326.41C149.6 317.51 159.8 315.91 163.1 318.61C167.6 322.41 174.4 321.71 178.1 317.21C181.9 312.71 181.2 305.91 176.7 302.21C163.6 291.41 141.7 295.41 125.6 311.41C108.7 328.31 105.4 351.51 118 364.21C129.8 376.01 146.7 374.11 168.2 358.71L170.8 356.91C185.4 346.41 191.2 346.91 193.4 349.21C194.8 350.61 195.2 353.41 194.5 356.91C193.5 361.91 190.3 367.41 185.8 371.91C176.9 380.81 166.7 382.51 163.4 379.71C158.8 375.91 152.1 376.61 148.4 381.11C144.6 385.61 145.3 392.41 149.8 396.11C154.8 400.21 161 402.21 167.7 402.21C178.7 402.21 190.9 396.91 200.9 387.01C208.4 379.51 213.6 370.31 215.4 361.11C217.5 350.51 215 340.71 208.4 334.21C196.8 322.21 179.9 324.11 158.4 339.51Z" />
				<path id="Layer" class="shp0" d="M276.5 281.31L246.3 311.51L231.2 296.41L253.8 273.81C258 269.61 258 262.91 253.8 258.71C249.6 254.51 242.9 254.51 238.7 258.71L216.1 281.31L201 266.21L231.2 236.01C235.4 231.81 235.4 225.11 231.2 220.91C227 216.71 220.3 216.71 216.1 220.91L178.4 258.61C174.2 262.81 174.2 269.51 178.4 273.71L238.7 334.01C240.8 336.11 243.5 337.11 246.3 337.11C249.1 337.11 251.8 336.11 253.9 334.01L291.6 296.31C295.8 292.11 295.8 285.41 291.6 281.21C287.4 277.11 280.7 277.11 276.5 281.31Z" />
				<path id="Layer" fill-rule="evenodd" class="shp1" d="M512 288.81C506.2 368.01 480.9 448.01 437.4 448.01C409.2 448.01 388.7 412.81 376.3 364.11L246.6 493.81C234.9 505.51 219.3 512.01 202.7 512.01C186 512.01 170.4 505.51 158.7 493.81L18.2 353.31C6.5 341.61 0 326.01 0 309.41C0 292.71 6.5 277.11 18.2 265.41L255.4 28.11C273.6 10.01 297.6 0.01 323.3 0.01L458.7 0.01C488.1 0.01 512 23.91 512 53.31L512 188.61C512 214.31 502 238.41 483.8 256.71L393.8 346.71C404.8 397.71 422.9 426.81 437.3 426.81C458.1 426.81 484.4 373.41 490.7 287.31C491.1 281.41 496.2 277.01 502.1 277.41C508 277.81 512.4 282.91 512 288.81ZM389.2 321.11L468.8 241.41C482.9 227.31 490.7 208.51 490.7 188.61L490.7 53.31C490.7 35.71 476.3 21.31 458.7 21.31L323.4 21.31C303.5 21.31 284.7 29.11 270.6 43.21L33.3 280.51C25.6 288.21 21.4 298.41 21.4 309.31C21.4 320.31 25.6 330.51 33.3 338.21L173.8 478.81C189.3 494.31 216.2 494.11 231.5 478.81L370.9 339.31C365.5 309.91 362.7 277.31 362.7 245.31C362.7 216.91 366.7 189.91 371.8 165.21C353.9 156.61 341.4 138.51 341.4 117.31C341.4 87.91 365.3 64.01 394.7 64.01C424.1 64.01 447.9 88.01 447.9 117.41C447.9 146.81 424 170.71 394.6 170.71C393.9 170.71 393.2 170.51 392.4 170.51C387.6 193.81 384 219.01 384 245.41C384 273.51 385.9 298.81 389.2 321.11ZM376.5 143.71C379.1 133.31 381.8 123.41 384.4 114.41C386 108.71 391.9 105.41 397.6 107.11C403.3 108.71 406.5 114.61 404.9 120.31C402.4 129.21 399.7 138.91 397.2 149.11C413.6 147.91 426.7 134.21 426.7 117.41C426.7 99.81 412.3 85.41 394.7 85.41C377.1 85.41 362.7 99.81 362.7 117.41C362.7 128.31 368.2 137.91 376.5 143.71Z" />
				<path id="Layer" fill-rule="evenodd" class="shp0" d="M336.9 190.71C345 198.81 349.4 209.51 349.4 220.91C349.4 232.31 345 243.11 336.9 251.11C328.8 259.21 318.1 263.61 306.7 263.61C295.3 263.61 284.5 259.21 276.5 251.11L261.4 236.01C244.8 219.41 244.8 192.31 261.4 175.71C278.1 159.01 305.2 159.11 321.8 175.71L336.9 190.71ZM328.1 220.91C328.1 215.21 325.8 209.81 321.8 205.81L306.7 190.71C302.5 186.61 297.1 184.51 291.6 184.51C286.1 184.51 280.7 186.61 276.5 190.71C268.2 199.11 268.2 212.61 276.5 220.91L291.6 236.01C299.7 244.11 313.7 244.11 321.8 236.01C325.8 231.91 328 226.61 328.1 220.91Z" />
			</g>
		</g>
	</g>
	<g id="Layer">
	</g>
	<g id="Layer">
	</g>
	<g id="Layer">
	</g>
	<g id="Layer">
	</g>
	<g id="Layer">
	</g>
	<g id="Layer">
	</g>
	<g id="Layer">
	</g>
	<g id="Layer">
	</g>
	<g id="Layer">
	</g>
	<g id="Layer">
	</g>
	<g id="Layer">
	</g>
	<g id="Layer">
	</g>
	<g id="Layer">
	</g>
	<g id="Layer">
	</g>
	<g id="Layer">
	</g>
</svg>