<svg xmlns="http://www.w3.org/2000/svg" viewBox="0 0 512 512" width="512" height="512">
	<style>
		tspan { white-space:pre }
		.shp0 { fill: #0000ff } 
		.shp1 { fill: #eaaf2f } 
	</style>
	<g id="Layer">
		<path id="Layer" fill-rule="evenodd" class="shp0" d="M472 56C476.2 56.01 480.36 56.84 484.24 58.45C488.12 60.06 491.64 62.41 494.62 65.38C497.59 68.36 499.94 71.88 501.55 75.76C503.16 79.64 503.99 83.8 504 88L504 360C503.99 364.2 503.16 368.36 501.55 372.24C499.94 376.12 497.59 379.64 494.62 382.62C491.64 385.59 488.12 387.94 484.24 389.55C480.36 391.16 476.2 391.99 472 392L307.1 392L317.77 424L344 424C345.05 424 346.09 424.21 347.06 424.61C348.03 425.01 348.91 425.6 349.66 426.34C350.4 427.09 350.99 427.97 351.39 428.94C351.79 429.91 352 430.95 352 432L352 448L440 448C442.12 448 444.16 448.84 445.66 450.34C447.16 451.84 448 453.88 448 456C448 458.12 447.16 460.16 445.66 461.66C444.16 463.16 442.12 464 440 464L88 464C85.88 464 83.84 463.16 82.34 461.66C80.84 460.16 80 458.12 80 456C80 453.88 80.84 451.84 82.34 450.34C83.84 448.84 85.88 448 88 448L160 448L160 432C160 430.95 160.21 429.91 160.61 428.94C161.01 427.97 161.6 427.09 162.34 426.34C163.09 425.6 163.97 425.01 164.94 424.61C165.91 424.21 166.95 424 168 424L194.23 424L204.9 392L40 392C35.8 391.99 31.64 391.16 27.76 389.55C23.88 387.94 20.36 385.59 17.38 382.62C14.41 379.64 12.06 376.12 10.45 372.24C8.84 368.36 8.01 364.2 8 360L8 88C8.01 83.8 8.84 79.64 10.45 75.76C12.06 71.88 14.41 68.36 17.38 65.38C20.36 62.41 23.88 60.06 27.76 58.45C31.64 56.84 35.8 56.01 40 56L472 56ZM176 440L176 448L336 448L336 440L176 440ZM300.9 424L290.23 392L221.77 392L211.1 424L300.9 424ZM488 344L24 344L24 360C24 362.1 24.42 364.18 25.22 366.12C26.03 368.06 27.21 369.82 28.69 371.31C30.18 372.79 31.94 373.97 33.88 374.78C35.82 375.58 37.9 376 40 376L472 376C474.1 376 476.18 375.58 478.12 374.78C480.06 373.97 481.82 372.79 483.31 371.31C484.79 369.82 485.97 368.06 486.78 366.12C487.58 364.18 488 362.1 488 360L488 344ZM488 88C488 85.9 487.58 83.82 486.78 81.88C485.97 79.94 484.79 78.18 483.31 76.69C481.82 75.21 480.06 74.03 478.12 73.22C476.18 72.42 474.1 72 472 72L40 72C37.9 72 35.82 72.42 33.88 73.22C31.94 74.03 30.18 75.21 28.69 76.69C27.21 78.18 26.03 79.94 25.22 81.88C24.42 83.82 24 85.9 24 88L24 328L115.33 328L112.01 248.33C112 248.15 112.01 247.97 112.01 247.78L112.01 247.54C112.01 247.47 112.02 247.4 112.03 247.33C112.03 247.26 112.04 247.19 112.05 247.12C112.06 247.05 112.07 246.98 112.08 246.91C112.09 246.84 112.1 246.77 112.11 246.7L112.11 246.68L119.51 202.27C110.22 195.26 104 182.52 104 168C104 147.44 127.83 124.67 130.55 122.14C131.28 121.46 132.14 120.92 133.07 120.56C134.01 120.19 135 120 136 120C137 120 137.99 120.19 138.93 120.56C139.86 120.92 140.72 121.46 141.45 122.14C144.17 124.67 168 147.44 168 168C168 182.52 161.78 195.26 152.49 202.27L159.89 246.68L159.89 246.7C159.9 246.77 159.91 246.84 159.92 246.91C159.93 246.98 159.94 247.05 159.95 247.12C159.96 247.19 159.97 247.26 159.97 247.33C159.98 247.4 159.99 247.47 159.99 247.54L159.99 247.78C159.99 247.97 160 248.15 159.99 248.33L156.67 328L176.07 328C176.06 327.92 176.05 327.83 176.04 327.75C176.03 327.67 176.03 327.58 176.02 327.5C176.01 327.42 176.01 327.33 176.01 327.25C176 327.17 176 327.08 176 327L176 176C176 175.69 176.02 175.38 176.05 175.07C176.09 174.77 176.14 174.46 176.21 174.16C176.28 173.86 176.37 173.56 176.48 173.27C176.58 172.98 176.7 172.7 176.84 172.42L200.84 124.42C201.51 123.09 202.53 121.97 203.79 121.19C205.06 120.41 206.51 120 208 120C209.49 120 210.94 120.41 212.21 121.19C213.47 121.97 214.49 123.09 215.16 124.42L239.16 172.42C239.3 172.7 239.42 172.98 239.52 173.27C239.63 173.56 239.72 173.86 239.79 174.16C239.86 174.46 239.91 174.77 239.95 175.07C239.98 175.38 240 175.69 240 176L240 327C240 327.08 240 327.17 239.99 327.25C239.99 327.33 239.99 327.42 239.98 327.5C239.97 327.58 239.97 327.67 239.96 327.75C239.95 327.83 239.94 327.92 239.93 328L248 328L248 128C248 126.95 248.21 125.91 248.61 124.94C249.01 123.97 249.6 123.09 250.34 122.34C251.09 121.6 251.97 121.01 252.94 120.61C253.91 120.21 254.95 120 256 120L328 120C329.05 120 330.09 120.21 331.06 120.61C332.03 121.01 332.91 121.6 333.66 122.34C334.4 123.09 334.99 123.97 335.39 124.94C335.79 125.91 336 126.95 336 128L336 328L344.07 328C344.06 327.92 344.05 327.83 344.04 327.75C344.03 327.67 344.03 327.58 344.02 327.5C344.01 327.42 344.01 327.33 344.01 327.25C344 327.17 344 327.08 344 327L344 240C344 239.69 344.02 239.38 344.05 239.07C344.09 238.77 344.14 238.46 344.21 238.16C344.28 237.86 344.37 237.56 344.48 237.27C344.58 236.98 344.7 236.7 344.84 236.42L368.84 188.42C369.51 187.09 370.53 185.97 371.79 185.19C373.06 184.41 374.51 184 376 184C377.49 184 378.94 184.41 380.21 185.19C381.47 185.97 382.49 187.09 383.16 188.42L407.16 236.42C407.3 236.7 407.42 236.98 407.52 237.27C407.63 237.56 407.72 237.86 407.79 238.16C407.86 238.46 407.91 238.77 407.95 239.07C407.98 239.38 408 239.69 408 240L408 327C408 327.08 408 327.17 407.99 327.25C407.99 327.33 407.99 327.42 407.98 327.5C407.97 327.58 407.97 327.67 407.96 327.75C407.95 327.83 407.94 327.92 407.93 328L488 328L488 88ZM142.56 240L137.22 208L134.78 208L129.44 240L142.56 240ZM152 168C152 159.2 142.83 147.05 135.98 139.45C128.38 147.86 120 159.79 120 168C120 181.01 127.33 192 136 192C144.67 192 152 181.01 152 168ZM192.94 176L192 177.89L192 184L224 184L224 177.89L223.06 176L192.94 176ZM215.06 160L208 145.89L200.94 160L215.06 160ZM192 200L192 327C192 327.08 192 327.17 191.99 327.25C191.99 327.33 191.99 327.42 191.98 327.5C191.97 327.58 191.97 327.67 191.96 327.75C191.95 327.83 191.94 327.92 191.93 328L224.07 328C224.06 327.92 224.05 327.83 224.04 327.75C224.03 327.67 224.03 327.58 224.02 327.5C224.01 327.42 224.01 327.33 224.01 327.25C224 327.17 224 327.08 224 327L224 200L192 200ZM290.34 165.66C288.84 164.16 288 162.12 288 160C288 157.88 288.84 155.84 290.34 154.34C291.84 152.84 293.88 152 296 152L320 152L320 136L264 136L264 328L320 328L320 296L296 296C293.88 296 291.84 295.16 290.34 293.66C288.84 292.16 288 290.12 288 288C288 285.88 288.84 283.84 290.34 282.34C291.84 280.84 293.88 280 296 280L320 280L320 264L312 264C309.88 264 307.84 263.16 306.34 261.66C304.84 260.16 304 258.12 304 256C304 253.88 304.84 251.84 306.34 250.34C307.84 248.84 309.88 248 312 248L320 248L320 232L296 232C293.88 232 291.84 231.16 290.34 229.66C288.84 228.16 288 226.12 288 224C288 221.88 288.84 219.84 290.34 218.34C291.84 216.84 293.88 216 296 216L320 216L320 200L312 200C309.88 200 307.84 199.16 306.34 197.66C304.84 196.16 304 194.12 304 192C304 189.88 304.84 187.84 306.34 186.34C307.84 184.84 309.88 184 312 184L320 184L320 168L296 168C293.88 168 291.84 167.16 290.34 165.66ZM360 264L360 327C360 327.08 360 327.17 359.99 327.25C359.99 327.33 359.99 327.42 359.98 327.5C359.97 327.58 359.97 327.67 359.96 327.75C359.95 327.83 359.94 327.92 359.93 328L392.07 328C392.06 327.92 392.05 327.83 392.04 327.75C392.03 327.67 392.03 327.58 392.02 327.5C392.01 327.42 392.01 327.33 392.01 327.25C392 327.17 392 327.08 392 327L392 264L360 264ZM392 248L392 241.89L376 209.89L360 241.89L360 248L392 248ZM128.34 256L131.34 328L140.66 328L143.66 256L128.34 256Z" />
		<path id="Layer" class="shp1" d="M96 352L48 352C45.88 352 43.84 352.84 42.34 354.34C40.84 355.84 40 357.88 40 360C40 362.12 40.84 364.16 42.34 365.66C43.84 367.16 45.88 368 48 368L96 368C98.12 368 100.16 367.16 101.66 365.66C103.16 364.16 104 362.12 104 360C104 357.88 103.16 355.84 101.66 354.34C100.16 352.84 98.12 352 96 352Z" />
		<path id="Layer" class="shp1" d="M128 352L120 352C117.88 352 115.84 352.84 114.34 354.34C112.84 355.84 112 357.88 112 360C112 362.12 112.84 364.16 114.34 365.66C115.84 367.16 117.88 368 120 368L128 368C130.12 368 132.16 367.16 133.66 365.66C135.16 364.16 136 362.12 136 360C136 357.88 135.16 355.84 133.66 354.34C132.16 352.84 130.12 352 128 352Z" />
		<path id="Layer" class="shp1" d="M208 208C206.95 208 205.91 208.21 204.94 208.61C203.97 209.01 203.09 209.6 202.34 210.34C201.6 211.09 201.01 211.97 200.61 212.94C200.21 213.91 200 214.95 200 216L200 304C200 306.12 200.84 308.16 202.34 309.66C203.84 311.16 205.88 312 208 312C210.12 312 212.16 311.16 213.66 309.66C215.16 308.16 216 306.12 216 304L216 216C216 214.95 215.79 213.91 215.39 212.94C214.99 211.97 214.4 211.09 213.66 210.34C212.91 209.6 212.03 209.01 211.06 208.61C210.09 208.21 209.05 208 208 208Z" />
		<path id="Layer" class="shp1" d="M376 272C374.95 272 373.91 272.21 372.94 272.61C371.97 273.01 371.09 273.6 370.34 274.34C369.6 275.09 369.01 275.97 368.61 276.94C368.21 277.91 368 278.95 368 280L368 304C368 306.12 368.84 308.16 370.34 309.66C371.84 311.16 373.88 312 376 312C378.12 312 380.16 311.16 381.66 309.66C383.16 308.16 384 306.12 384 304L384 280C384 278.95 383.79 277.91 383.39 276.94C382.99 275.97 382.4 275.09 381.66 274.34C380.91 273.6 380.03 273.01 379.06 272.61C378.09 272.21 377.05 272 376 272Z" />
		<path id="Layer" class="shp1" d="M48 104L112 104C114.12 104 116.16 103.16 117.66 101.66C119.16 100.16 120 98.12 120 96C120 93.88 119.16 91.84 117.66 90.34C116.16 88.84 114.12 88 112 88L48 88C45.88 88 43.84 88.84 42.34 90.34C40.84 91.84 40 93.88 40 96C40 98.12 40.84 100.16 42.34 101.66C43.84 103.16 45.88 104 48 104Z" />
		<path id="Layer" class="shp1" d="M48 128L64 128C66.12 128 68.16 127.16 69.66 125.66C71.16 124.16 72 122.12 72 120C72 117.88 71.16 115.84 69.66 114.34C68.16 112.84 66.12 112 64 112L48 112C45.88 112 43.84 112.84 42.34 114.34C40.84 115.84 40 117.88 40 120C40 122.12 40.84 124.16 42.34 125.66C43.84 127.16 45.88 128 48 128Z" />
		<path id="Layer" class="shp1" d="M432 312L464 312C466.12 312 468.16 311.16 469.66 309.66C471.16 308.16 472 306.12 472 304C472 301.88 471.16 299.84 469.66 298.34C468.16 296.84 466.12 296 464 296L432 296C429.88 296 427.84 296.84 426.34 298.34C424.84 299.84 424 301.88 424 304C424 306.12 424.84 308.16 426.34 309.66C427.84 311.16 429.88 312 432 312Z" />
		<path id="Layer" class="shp1" d="M456 288L464 288C466.12 288 468.16 287.16 469.66 285.66C471.16 284.16 472 282.12 472 280C472 277.88 471.16 275.84 469.66 274.34C468.16 272.84 466.12 272 464 272L456 272C453.88 272 451.84 272.84 450.34 274.34C448.84 275.84 448 277.88 448 280C448 282.12 448.84 284.16 450.34 285.66C451.84 287.16 453.88 288 456 288Z" />
	</g>
</svg>